<?xml version="1.0" encoding="UTF-8"?>
<svg id="Capa_1" xmlns="http://www.w3.org/2000/svg" version="1.1" viewBox="0 0 300 400">
  <defs>
    <style>
      .st0 {
        font-family: Montserrat-Black, Montserrat;
        font-size: 59.6px;
        font-weight: 800;
      }

      .st0, .st1 {
        fill: #01052d;
      }

      .st2 {
        letter-spacing: 0em;
      }

      .st3 {
        letter-spacing: 0em;
      }
    </style>
  </defs>
  <text class="st0" transform="translate(.8 370.3)"><tspan x="0" y="0">BIO</tspan><tspan class="st3" x="117.5" y="0">D</tspan><tspan class="st2" x="166.2" y="0">AT</tspan><tspan x="249.1" y="0">A</tspan></text>
  <path class="st1" d="M175.8,59.3c3.9-9.8,9.9-19.2,16.5-26.6,13.8-13.7,22.3-12.3,24.6-8.7,2.5,3.9,2.9,9.5,9.2,10.4,6.3.8,11.1-3.2,9.9-8h0c0-.5-.1-.9-.3-1.4-5.7-14.3-14.8-17-21.4-16.8-19.4.6-41.8,28.3-49.7,52.7-.4,1.3-.3,2.7.3,3.9.6,1.2,1.7,2.1,3.1,2.5,79.6,22.6,114.9,100.8,104,165.1-8.8-.2-30.8-1.8-53.7-12.7-.5-.5-1.1-.8-1.9-1.1-.2,0-.4,0-.6-.1-22.8-11.5-46.1-32.3-58.1-70.2-8.2-33.5,9.2-44.3,21.6-42.9,16.2,1.8,42.5,29.5,49.1,61.6,0,0,6.1-27.5-23.8-57.1-27-26.7-49.9-11.3-54.5-5.1-4.7-6.2-27.6-21.6-54.5,5.1-29.9,29.6-23.8,57.1-23.8,57.1,6.7-32.2,32.9-59.8,49.1-61.6,12.5-1.4,29.8,9.4,21.6,42.9-12.1,37.8-35.4,58.7-58.1,70.2-.2,0-.4,0-.6.1-.7.2-1.3.6-1.9,1.1-22.9,10.9-44.8,12.6-53.7,12.7-10.9-64.3,24.4-142.5,104-165.1,1.3-.4,2.4-1.3,3.1-2.5.6-1.2.8-2.6.3-3.9-7.9-24.4-30.3-52.1-49.7-52.7-6.7-.2-15.7,2.5-21.4,16.8-.2.4-.3.9-.3,1.3h0c-1.2,4.8,3.6,8.8,9.9,8,6.3-.8,6.7-6.4,9.2-10.4,2.3-3.7,10.8-5,24.6,8.7,6.5,7.4,12.6,16.8,16.5,26.5C41.2,85.9,5.5,170.4,19.2,238.5c.5,2.3,2.4,3.9,4.7,4,0,0,.6,0,1.5,0,6.2,0,30.5-.8,56.9-12.4,13.3,36,46.4,57.7,65.5,67.7.7.4,1.5.6,2.3.6s1.6-.2,2.3-.6c19.1-10,52.2-31.7,65.5-67.7,26.4,11.5,50.7,12.4,56.9,12.4s1.4,0,1.5,0c2.3-.1,4.2-1.8,4.7-4,13.7-68.1-22-152.7-105.2-179.2ZM172.6,196.7c-3.1,1-10.5,2.8-22.5,2.8s-19.4-1.8-22.5-2.8c8.9-10.6,16.7-23.6,22.5-39.5,5.8,16,13.6,29,22.5,39.5ZM150.1,287.8c-10.6-5.7-24.9-14.9-37.2-27.9,9.5,3.3,22.7,6.7,37.2,6.7s27.7-3.4,37.2-6.7c-12.3,13-26.6,22.1-37.2,27.9ZM208.5,226.9l.2-.7s-21.1,16.2-58.5,16.2-58.5-16.2-58.5-16.2l.2.7c-.1-.4-.2-.7-.4-1.1,5.9-3.1,11.8-6.8,17.6-11.3,5.8,2.7,21.4,9,41.2,9s35.4-6.3,41.2-9c5.8,4.4,11.7,8.1,17.6,11.3-.1.4-.2.7-.4,1.1Z"/>
</svg>
