<?xml version="1.0" encoding="UTF-8"?>
<svg xmlns="http://www.w3.org/2000/svg" xmlns:xlink="http://www.w3.org/1999/xlink" version="1.1" viewBox="0 0 300 400">
  <defs>
    <style>
      .st0 {
        fill: url(#linear-gradient2);
      }

      .st1 {
        fill: url(#linear-gradient1);
      }

      .st2 {
        fill: url(#linear-gradient3);
      }

      .st3 {
        fill: url(#linear-gradient5);
      }

      .st4 {
        fill: url(#linear-gradient4);
      }

      .st5 {
        opacity: 0;
      }

      .st5, .st6, .st7, .st8 {
        mix-blend-mode: multiply;
      }

      .st6 {
        opacity: .5;
      }

      .st6, .st7 {
        fill: #f94c00;
      }

      .st7 {
        opacity: .2;
      }

      .st9 {
        fill: #fff;
        font-family: Montserrat-Black, Montserrat;
        font-size: 59.6px;
        font-weight: 800;
      }

      .st10 {
        fill: url(#linear-gradient);
      }

      .st11 {
        isolation: isolate;
      }

      .st12, .st8 {
        fill: #1c7c37;
      }

      .st8 {
        opacity: .4;
      }

      .st13 {
        letter-spacing: 0em;
      }

      .st14 {
        letter-spacing: 0em;
      }

      .st15 {
        fill: #01052d;
      }
    </style>
    <linearGradient id="linear-gradient" x1="150" y1="25.7" x2="150" y2="486.3" gradientUnits="userSpaceOnUse">
      <stop offset="0" stop-color="#d9e02c"/>
      <stop offset=".9" stop-color="#1c7c37"/>
    </linearGradient>
    <linearGradient id="linear-gradient1" x1="150" y1="264.4" x2="150" y2="199.3" gradientUnits="userSpaceOnUse">
      <stop offset="0" stop-color="#ff2966"/>
      <stop offset="1" stop-color="#ff0"/>
    </linearGradient>
    <linearGradient id="linear-gradient2" x1="150" y1="63.1" x2="150" y2="265.3" xlink:href="#linear-gradient"/>
    <linearGradient id="linear-gradient3" y1="233.6" y2="160.5" xlink:href="#linear-gradient1"/>
    <linearGradient id="linear-gradient4" y1="308.2" y2="215.4" xlink:href="#linear-gradient1"/>
    <linearGradient id="linear-gradient5" x1="150" y1="103.7" x2="150" y2="105.2" xlink:href="#linear-gradient"/>
  </defs>
  <g class="st11">
    <g id="Capa_1">
      <g>
        <g>
          <path class="st10" d="M267.3,131.9c-13.4-25.1-39.4-58-87.6-74.4,3.6-8.1,8.7-16,14.6-22.7,10-9.8,15.7-10.4,17.7-10.2,1,.1,1.8.5,2.2,1.1.5.8,1,1.9,1.5,2.9,1.5,3.4,3.5,7.9,9.8,8.8,4.4.6,8.6-.8,11.2-3.6,2-2.2,2.7-5.2,2-8.1h0c0-.7-.2-1.2-.4-1.7-6.6-16.7-18.1-18.9-24.3-18.7-9.8.3-20.9,6.9-31.3,18.4-8.3,9.2-15.3,20.7-19.6,32.1-3.3-2.3-8.3-3.4-13.1-3.4s-9.7,1.1-13.1,3.4c-4.3-11.4-11.4-22.9-19.6-32.1-10.4-11.6-21.5-18.1-31.3-18.4-7.6-.2-18,2.8-24.3,18.7-.2.5-.3,1-.4,1.6h0c-.7,3,0,5.9,2,8.2,2.5,2.9,6.7,4.2,11.2,3.6,6.3-.8,8.3-5.4,9.8-8.8.5-1.1.9-2.1,1.5-2.9.4-.6,1.1-.9,2.2-1.1,2-.2,7.8.3,17.7,10.2,5.9,6.7,11,14.6,14.6,22.7-48.2,16.4-74.2,49.4-87.6,74.4-17.6,32.9-23.6,72-16.6,107.2.7,3.6,3.8,6.3,7.5,6.4,0,0,.6,0,1.6,0,6.6,0,29.6-.8,55.2-11.4,14.4,35.4,47.2,56.7,65.8,66.4,1.1.6,2.4.9,3.7.9s2.6-.3,3.7-.9c18.6-9.7,51.4-31,65.8-66.4,25.6,10.6,48.6,11.4,55.2,11.4s1.6,0,1.6,0c3.7-.2,6.8-2.8,7.5-6.4,7.1-35.2,1-74.3-16.6-107.2ZM135.8,63.2s0,0,0,0h0s0,0,0,0ZM126.3,94.9h0,0ZM142.4,148.5h0s0,0,0,0c0,0,0,0,0,0ZM148.6,103.4s0,0,0,0h0s0,0,0,0ZM123.2,105.5h0,0Z"/>
          <g>
            <g>
              <path class="st1" d="M150,242.4c37.5,0,58.5-16.2,58.5-16.2l-.2.7c.1-.4.2-.7.4-1.1-5.9-3.1-11.8-6.8-17.6-11.3-5.8,2.7-21.4,9-41.2,9s-35.4-6.3-41.2-9c-5.8,4.4-11.7,8.1-17.6,11.3.1.4.2.7.4,1.1l-.2-.7s21.1,16.2,58.5,16.2Z"/>
              <path class="st0" d="M150,105c4.7-6.2,27.6-21.6,54.5,5.1,29.9,29.6,23.8,57.1,23.8,57.1-6.7-32.2-32.9-59.8-49.1-61.6-12.5-1.4-29.8,9.4-21.6,42.9,12.1,37.8,35.4,58.7,58.1,70.2.2,0,.4,0,.6.1.7.2,1.3.6,1.9,1.1,22.9,10.9,44.8,12.6,53.7,12.7,10.9-64.3-24.4-142.5-104-165.1-1.3-.4-2.4-1.3-3.1-2.5-.3-.5-.5-1.1-.5-1.7,0-5.2-7.1-7.8-14.2-7.8s-14.2,2.6-14.2,7.8c0,.6-.2,1.2-.5,1.7-.6,1.2-1.7,2.1-3.1,2.5C52.5,90,17.3,168.3,28.2,232.6c8.8-.2,30.8-1.8,53.7-12.7.5-.5,1.1-.8,1.9-1.1.2,0,.4,0,.6-.1,22.8-11.5,46.1-32.3,58.1-70.2,8.2-33.5-9.2-44.3-21.6-42.9-16.2,1.8-42.5,29.5-49.1,61.6,0,0-6.1-27.5,23.8-57.1,27-26.7,49.9-11.3,54.5-5.1Z"/>
              <path class="st2" d="M150,199.5c12,0,19.4-1.8,22.5-2.8-8.9-10.6-16.7-23.6-22.5-39.5-5.8,16-13.6,29-22.5,39.5,3.1,1,10.5,2.8,22.5,2.8Z"/>
              <path class="st4" d="M150,287.8c10.6-5.7,24.9-14.9,37.2-27.9-9.5,3.3-22.7,6.7-37.2,6.7s-27.7-3.4-37.2-6.7c12.3,13,26.6,22.1,37.2,27.9Z"/>
              <g>
                <path class="st8" d="M271.8,232.6c-98-23.8-110.2-114.1-92.6-127-12.5-1.4-29.8,9.4-21.6,42.9,12.1,37.8,35.4,58.7,58.1,70.2.2,0,.4,0,.6.1.7.2,1.3.6,1.9,1.1,22.9,10.9,44.8,12.6,53.7,12.7Z"/>
                <path class="st8" d="M28.2,232.6c98-23.8,110.2-114.1,92.6-127,12.5-1.4,29.8,9.4,21.6,42.9-12.1,37.8-35.4,58.7-58.1,70.2-.2,0-.4,0-.6.1-.7.2-1.3.6-1.9,1.1-22.9,10.9-44.8,12.6-53.7,12.7Z"/>
                <path class="st3" d="M150,105c.3-.4.7-.9,1.2-1.3h-2.3c.5.5.9.9,1.2,1.3Z"/>
              </g>
              <g class="st5">
                <path class="st12" d="M271.5,183.5c-11.9-18.6-28.1-34.1-47.3-45,6.8,16.7,4.2,28.7,4.2,28.7-2.6-12.5-8.2-24.3-14.9-34.2-17.1-7.8-36.1-12.1-56-12.1s-.1,0-.2,0c-2.2,6.7-2.5,15.7.4,27.7,12.1,37.8,35.4,58.7,58.1,70.2.2,0,.4,0,.6.1.7.2,1.3.6,1.9,1.1,22.9,10.9,44.8,12.6,53.7,12.7,2.7-15.9,2.6-32.6-.4-49.1Z"/>
              </g>
              <g class="st5">
                <path class="st12" d="M28.5,183.5c11.9-18.6,28.1-34.1,47.3-45-6.8,16.7-4.2,28.7-4.2,28.7,2.6-12.5,8.2-24.3,14.9-34.2,17.1-7.8,36.1-12.1,56-12.1s.1,0,.2,0c2.2,6.7,2.5,15.7-.4,27.7-12.1,37.8-35.4,58.7-58.1,70.2-.2,0-.4,0-.6.1-.7.2-1.3.6-1.9,1.1-22.9,10.9-44.8,12.6-53.7,12.7-2.7-15.9-2.6-32.6.4-49.1Z"/>
              </g>
              <path class="st6" d="M208.4,226.9l.2-.7s-4.2,3.2-12.3,6.8c-4.4-3.5-9.8-8.2-15.4-14.4,4.6-1.5,8.1-3,10.3-4,5.8,4.4,11.7,8.1,17.6,11.3-.1.4-.2.7-.4,1.1ZM172.5,196.7c-8.9-10.6-16.7-23.6-22.5-39.5,3.3,16.3,9.1,29.9,15.8,41.1,3.1-.5,5.3-1.1,6.6-1.6Z"/>
              <path class="st6" d="M91.6,226.9l-.2-.7s4.2,3.2,12.3,6.8c4.4-3.5,9.8-8.2,15.4-14.4-4.6-1.5-8.1-3-10.3-4-5.8,4.4-11.7,8.1-17.6,11.3.1.4.2.7.4,1.1ZM127.5,196.7c8.9-10.6,16.7-23.6,22.5-39.5-3.3,16.3-9.1,29.9-15.8,41.1-3.1-.5-5.3-1.1-6.6-1.6Z"/>
              <path class="st7" d="M150.1,287.7s0,0-.1,0c-10.6-5.7-24.9-14.9-37.2-27.9,9.5,3.3,22.7,6.7,37.2,6.7s0,0,.1,0v21.1ZM150,223.6c-19.8,0-35.4-6.3-41.2-9-5.8,4.4-11.7,8.1-17.6,11.3.1.4.2.7.4,1.1l-.2-.7s21.1,16.2,58.5,16.2,0,0,.1,0v-18.8s0,0-.1,0ZM150.1,199.5v-42c0-.1,0-.2-.1-.3-5.8,16-13.6,29-22.5,39.5,3.1,1,10.5,2.8,22.5,2.8s0,0,.1,0Z"/>
            </g>
            <path class="st15" d="M175.7,59.3c3.9-9.8,9.9-19.2,16.5-26.6,13.8-13.7,22.3-12.3,24.6-8.7,2.5,3.9,2.9,9.5,9.2,10.4,6.3.8,11.1-3.2,9.9-8h0c0-.5-.1-.9-.3-1.4-5.7-14.3-14.8-17-21.4-16.8-19.4.6-41.8,28.3-49.7,52.7-.4,1.3-.3,2.7.3,3.9.6,1.2,1.7,2.1,3.1,2.5,79.6,22.6,114.9,100.8,104,165.1-8.8-.2-30.8-1.8-53.7-12.7-.5-.5-1.1-.8-1.9-1.1-.2,0-.4,0-.6-.1-22.8-11.5-46.1-32.3-58.1-70.2-8.2-33.5,9.2-44.3,21.6-42.9,16.2,1.8,42.5,29.5,49.1,61.6,0,0,6.1-27.5-23.8-57.1-27-26.7-49.9-11.3-54.5-5.1-4.7-6.2-27.6-21.6-54.5,5.1-29.9,29.6-23.8,57.1-23.8,57.1,6.7-32.2,32.9-59.8,49.1-61.6,12.5-1.4,29.8,9.4,21.6,42.9-12.1,37.8-35.4,58.7-58.1,70.2-.2,0-.4,0-.6.1-.7.2-1.3.6-1.9,1.1-22.9,10.9-44.8,12.6-53.7,12.7-10.9-64.3,24.4-142.5,104-165.1,1.3-.4,2.4-1.3,3.1-2.5.6-1.2.8-2.6.3-3.9-7.9-24.4-30.3-52.1-49.7-52.7-6.7-.2-15.7,2.5-21.4,16.8-.2.4-.3.9-.3,1.3h0c-1.2,4.8,3.6,8.8,9.9,8,6.3-.8,6.7-6.4,9.2-10.4,2.3-3.7,10.8-5,24.6,8.7,6.5,7.4,12.6,16.8,16.5,26.5C41.1,85.9,5.4,170.4,19.1,238.5c.5,2.3,2.4,3.9,4.7,4,0,0,.6,0,1.5,0,6.2,0,30.5-.8,56.9-12.4,13.3,36,46.4,57.7,65.5,67.7.7.4,1.5.6,2.3.6s1.6-.2,2.3-.6c19.1-10,52.2-31.7,65.5-67.7,26.4,11.5,50.7,12.4,56.9,12.4s1.4,0,1.5,0c2.3-.1,4.2-1.8,4.7-4,13.7-68.1-22-152.7-105.2-179.2ZM172.5,196.7c-3.1,1-10.5,2.8-22.5,2.8s-19.4-1.8-22.5-2.8c8.9-10.6,16.7-23.6,22.5-39.5,5.8,16,13.6,29,22.5,39.5ZM150,287.8c-10.6-5.7-24.9-14.9-37.2-27.9,9.5,3.3,22.7,6.7,37.2,6.7s27.7-3.4,37.2-6.7c-12.3,13-26.6,22.1-37.2,27.9ZM208.4,226.9l.2-.7s-21.1,16.2-58.5,16.2-58.5-16.2-58.5-16.2l.2.7c-.1-.4-.2-.7-.4-1.1,5.9-3.1,11.8-6.8,17.6-11.3,5.8,2.7,21.4,9,41.2,9s35.4-6.3,41.2-9c5.8,4.4,11.7,8.1,17.6,11.3-.1.4-.2.7-.4,1.1Z"/>
          </g>
        </g>
      </g>
    </g>
  </g>
</svg>
